<svg xmlns="http://www.w3.org/2000/svg" width="18.629" height="22.999" viewBox="0 0 18.629 22.999">
  <g id="Group_888" data-name="Group 888" transform="translate(-1287.48 -350.501)">
    <path id="Path_33" data-name="Path 33" d="M17.993,32.063c2.187,0,3.382-1.547,3.382-3.727H14.6C14.6,30.516,15.8,32.063,17.993,32.063Z" transform="translate(1278.793 340.938)" fill="none" stroke="#000" stroke-width="1"/>
    <path id="Path_34" data-name="Path 34" d="M24.128,19.226c-.847-1.048-2.513-1.662-2.513-6.355,0-4.816-2.265-6.752-4.377-7.217-.2-.046-.341-.108-.341-.3V5.2a1.344,1.344,0,0,0-2.683,0v.15c0,.191-.143.258-.341.3-2.117.47-4.377,2.4-4.377,7.217,0,4.692-1.666,5.3-2.513,6.355a1.022,1.022,0,0,0,.874,1.642h15.4A1.022,1.022,0,0,0,24.128,19.226Z" transform="translate(1281.239 347.07)" fill="none" stroke="#000" stroke-width="1"/>
  </g>
</svg>
