<svg xmlns="http://www.w3.org/2000/svg" width="26.076" height="26.701" viewBox="0 0 26.076 26.701">
  <path id="Icon_material-settings" data-name="Icon material-settings" d="M25.457,17.11a10.014,10.014,0,0,0,.09-1.259,10.014,10.014,0,0,0-.09-1.259l2.711-2.12a.648.648,0,0,0,.154-.822L25.752,7.2a.646.646,0,0,0-.784-.283L21.769,8.2A9.389,9.389,0,0,0,19.6,6.945L19.109,3.54a.627.627,0,0,0-.63-.54h-5.14a.627.627,0,0,0-.63.54l-.488,3.405A9.873,9.873,0,0,0,10.049,8.2l-3.2-1.285a.627.627,0,0,0-.784.283L3.5,11.648a.634.634,0,0,0,.154.822l2.711,2.12a10.191,10.191,0,0,0-.09,1.259,10.191,10.191,0,0,0,.09,1.259L3.649,19.23a.648.648,0,0,0-.154.822L6.065,24.5a.646.646,0,0,0,.784.283l3.2-1.285a9.389,9.389,0,0,0,2.172,1.259l.488,3.405a.627.627,0,0,0,.63.54h5.14a.627.627,0,0,0,.63-.54l.488-3.405A9.873,9.873,0,0,0,21.769,23.5l3.2,1.285a.627.627,0,0,0,.784-.283l2.57-4.446a.648.648,0,0,0-.154-.822l-2.711-2.12Zm-9.548,3.238a4.5,4.5,0,1,1,4.5-4.5A4.5,4.5,0,0,1,15.909,20.348Z" transform="translate(-2.865 -2.5)" fill="none" stroke="#000" stroke-width="1"/>
</svg>
